<svg height="512" viewBox="0 0 256 256" width="512" xmlns="http://www.w3.org/2000/svg"><path d="m128 137.422a2.5 2.5 0 0 1 -2.5-2.5v-20.535a2.5 2.5 0 0 1 5 0v20.535a2.5 2.5 0 0 1 -2.5 2.5z" fill="#ebe7f2"/><path d="m128 225.763a2.5 2.5 0 0 1 -2.5-2.5v-22.763a2.5 2.5 0 0 1 5 0v22.763a2.5 2.5 0 0 1 -2.5 2.5z" fill="#ebe7f2"/><path d="m212.813 44.813h-52.438a43.242 43.242 0 0 0 -64.75 0h-52.438a8.261 8.261 0 0 0 -8.25 8.25v164.45a8.26 8.26 0 0 0 8.25 8.25h169.626a8.26 8.26 0 0 0 8.25-8.25v-164.45a8.261 8.261 0 0 0 -8.25-8.25zm-84.813-9.576a38.325 38.325 0 1 1 -38.325 38.325 38.368 38.368 0 0 1 38.325-38.325zm88.063 182.276a3.254 3.254 0 0 1 -3.25 3.25h-169.626a3.254 3.254 0 0 1 -3.25-3.25v-164.45a3.254 3.254 0 0 1 3.25-3.25h48.6a43.325 43.325 0 1 0 72.42 0h48.6a3.254 3.254 0 0 1 3.25 3.25z" fill="#846f75"/><g fill="#ebe7f2"><path d="m128 51.826a2.5 2.5 0 0 1 -2.5-2.5v-7.187a2.5 2.5 0 0 1 5 0v7.187a2.5 2.5 0 0 1 -2.5 2.5z"/><path d="m128 107.894a2.5 2.5 0 0 1 -2.5-2.5v-7.188a2.5 2.5 0 0 1 5 0v7.188a2.5 2.5 0 0 1 -2.5 2.5z"/><path d="m159.769 76.407h-7.188a2.5 2.5 0 0 1 0-5h7.188a2.5 2.5 0 0 1 0 5z"/><path d="m103.419 76.407h-7.188a2.5 2.5 0 0 1 0-5h7.188a2.5 2.5 0 0 1 0 5z"/><path d="m145.382 59.025a2.5 2.5 0 0 1 -1.768-4.267l5.082-5.082a2.5 2.5 0 1 1 3.535 3.535l-5.082 5.082a2.492 2.492 0 0 1 -1.767.732z"/><path d="m105.536 98.871a2.5 2.5 0 0 1 -1.767-4.267l5.082-5.083a2.5 2.5 0 0 1 3.535 3.536l-5.086 5.082a2.494 2.494 0 0 1 -1.764.732z"/><path d="m150.464 98.871a2.494 2.494 0 0 1 -1.768-.732l-5.082-5.082a2.5 2.5 0 0 1 3.535-3.536l5.082 5.083a2.5 2.5 0 0 1 -1.767 4.267z"/><path d="m110.618 59.025a2.492 2.492 0 0 1 -1.767-.732l-5.082-5.082a2.5 2.5 0 0 1 3.535-3.535l5.082 5.082a2.5 2.5 0 0 1 -1.768 4.267z"/></g><path d="m128 76.062a2.5 2.5 0 0 1 -1.751-4.286l18.041-17.695a2.5 2.5 0 0 1 3.5 3.57l-18.041 17.7a2.5 2.5 0 0 1 -1.749.711z" fill="#f9b087"/><path d="m128 203a2.494 2.494 0 0 1 -1.768-.732l-28.506-28.507a2.5 2.5 0 0 1 1.767-4.268h12.8v-34.571a2.5 2.5 0 0 1 2.5-2.5h26.413a2.5 2.5 0 0 1 2.5 2.5v34.571h12.8a2.5 2.5 0 0 1 1.767 4.268l-28.506 28.507a2.494 2.494 0 0 1 -1.767.732zm-22.472-28.507 22.472 22.472 22.472-22.472h-9.266a2.5 2.5 0 0 1 -2.5-2.5v-34.571h-21.413v34.571a2.5 2.5 0 0 1 -2.5 2.5z" fill="#f9b087"/></svg>